<svg width="30" height="30" viewBox="0 0 30 30" fill="none" xmlns="http://www.w3.org/2000/svg">
<path opacity="0.4" d="M21.25 25.625H8.75C5 25.625 2.5 23.75 2.5 19.375V10.625C2.5 6.25 5 4.375 8.75 4.375H21.25C25 4.375 27.5 6.25 27.5 10.625V19.375C27.5 23.75 25 25.625 21.25 25.625Z" fill="#F36666"/>
<path d="M14.9993 16.0899C13.9493 16.0899 12.8868 15.7649 12.0743 15.1024L8.16183 11.9774C7.97989 11.8194 7.86596 11.5973 7.84381 11.3574C7.82165 11.1175 7.89298 10.8782 8.04291 10.6896C8.19284 10.501 8.4098 10.3775 8.64854 10.345C8.88728 10.3124 9.12938 10.3733 9.32433 10.5149L13.2368 13.6399C14.1868 14.4024 15.7993 14.4024 16.7493 13.6399L20.6618 10.5149C21.0618 10.1899 21.6618 10.2524 21.9743 10.6649C22.2993 11.0649 22.2368 11.6649 21.8243 11.9774L17.9118 15.1024C17.1118 15.7649 16.0493 16.0899 14.9993 16.0899Z" fill="#F33535"/>
</svg>
