<svg width="30" height="30" viewBox="0 0 30 30" fill="none" xmlns="http://www.w3.org/2000/svg">
<path opacity="0.4" d="M26.7141 14.2377V21.7252C26.7141 25.1752 23.9141 27.9752 20.4641 27.9752H9.53906C6.08906 27.9752 3.28906 25.1752 3.28906 21.7252V14.3252C4.23906 15.3502 5.58906 15.9377 7.05156 15.9377C8.62656 15.9377 10.1391 15.1502 11.0891 13.8877C11.5228 14.5243 12.1067 15.0443 12.789 15.4018C13.4714 15.7594 14.2312 15.9434 15.0016 15.9377C16.6016 15.9377 18.0266 15.1877 18.8891 13.9377C19.8516 15.1752 21.3391 15.9377 22.8891 15.9377C24.4016 15.9377 25.7766 15.3252 26.7141 14.2377Z" fill="#F36666"/>
<path d="M18.7391 1.5625H11.2391L10.3141 10.7625C10.2391 11.6125 10.3641 12.4125 10.6766 13.1375C11.4016 14.8375 13.1016 15.9375 15.0016 15.9375C16.9266 15.9375 18.5891 14.8625 19.3391 13.15C19.5641 12.6125 19.7016 11.9875 19.7141 11.35V11.1125L18.7391 1.5625Z" fill="#F33535"/>
<path opacity="0.6" d="M27.9515 10.3375L27.589 6.875C27.064 3.1 25.3515 1.5625 21.689 1.5625H16.889L17.814 10.9375C17.8265 11.0625 17.839 11.2 17.839 11.4375C17.914 12.0875 18.114 12.6875 18.414 13.225C19.314 14.875 21.064 15.9375 22.889 15.9375C24.5515 15.9375 26.0515 15.2 26.989 13.9C27.739 12.9 28.0765 11.6375 27.9515 10.3375ZM8.23902 1.5625C4.56402 1.5625 2.86402 3.1 2.32652 6.9125L1.98902 10.35C1.86402 11.6875 2.22652 12.9875 3.01402 14C3.96402 15.2375 5.42652 15.9375 7.05152 15.9375C8.87652 15.9375 10.6265 14.875 11.514 13.25C11.839 12.6875 12.0515 12.0375 12.114 11.3625L13.089 1.575H8.23902V1.5625Z" fill="#F31818"/>
<path d="M14.186 20.8248C13.4186 20.9068 12.7088 21.2704 12.1939 21.8453C11.6791 22.4202 11.3956 23.1656 11.3985 23.9373V27.9748H18.586V24.3748C18.5985 21.7623 17.061 20.5248 14.186 20.8248Z" fill="#F33535"/>
</svg>
