<svg width="20" height="18" viewBox="0 0 20 18" fill="none" xmlns="http://www.w3.org/2000/svg">
<path d="M19 4.11111H13.6M4.6 4.11111H1M19 13.8889H15.4M6.4 13.8889H1M8.2 7.22222C8.61366 7.22222 9.02328 7.14175 9.40545 6.9854C9.78763 6.82906 10.1349 6.59989 10.4274 6.311C10.7199 6.02211 10.9519 5.67914 11.1102 5.30168C11.2685 4.92422 11.35 4.51967 11.35 4.11111C11.35 3.70255 11.2685 3.298 11.1102 2.92054C10.9519 2.54308 10.7199 2.20012 10.4274 1.91122C10.1349 1.62233 9.78763 1.39317 9.40545 1.23682C9.02328 1.08047 8.61366 1 8.2 1C7.36457 1 6.56335 1.32778 5.97261 1.91122C5.38187 2.49467 5.05 3.28599 5.05 4.11111C5.05 4.93623 5.38187 5.72755 5.97261 6.311C6.56335 6.89445 7.36457 7.22222 8.2 7.22222ZM11.8 17C12.6354 17 13.4366 16.6722 14.0274 16.0888C14.6181 15.5053 14.95 14.714 14.95 13.8889C14.95 13.0638 14.6181 12.2724 14.0274 11.689C13.4366 11.1056 12.6354 10.7778 11.8 10.7778C10.9646 10.7778 10.1634 11.1056 9.57261 11.689C8.98187 12.2724 8.65 13.0638 8.65 13.8889C8.65 14.714 8.98187 15.5053 9.57261 16.0888C10.1634 16.6722 10.9646 17 11.8 17Z" stroke="#F36666" stroke-width="1.5" stroke-miterlimit="10" stroke-linecap="round" stroke-linejoin="round"/>
</svg>
